PathFileType	4	(X/Y/Z)	2_1_32_p1_0-363_filt_butterworth.trc
DataRate	CameraRate	NumFrames	NumMarkers	Units	OrigDataRate	OrigDataStartFrame	OrigNumFrames
60.0	60.0	7	27	m	60.0	136	363
Frame#	Time	RHip			RKnee			RAnkle			RBigToe			RSmallToe			RHeel			LHip			LKnee			LAnkle			LBigToe			LSmallToe			LHeel			Neck			Head			Nose			RShoulder			RElbow			RWrist			RThumb			RIndex			RPinky			LShoulder			LElbow			LWrist			LThumb			LIndex			LPinky			
		X1	Y1	Z1	X2	Y2	Z2	X3	Y3	Z3	X4	Y4	Z4	X5	Y5	Z5	X6	Y6	Z6	X7	Y7	Z7	X8	Y8	Z8	X9	Y9	Z9	X10	Y10	Z10	X11	Y11	Z11	X12	Y12	Z12	X13	Y13	Z13	X14	Y14	Z14	X15	Y15	Z15	X16	Y16	Z16	X17	Y17	Z17	X18	Y18	Z18	X19	Y19	Z19	X20	Y20	Z20	X21	Y21	Z21	X22	Y22	Z22	X23	Y23	Z23	X24	Y24	Z24	X25	Y25	Z25	X26	Y26	Z26	X27	Y27	Z27	
136	2.2666666666666666	0.3215651249462487	0.7882140873821019	0.7378424776988121	0.33587676076053813	0.2975621869049052	0.7864966529835231	0.3161991671969023	-0.14854669666519735	0.8933303440270959	0.3417064835954017	-0.15686940201575647	0.6789508871493589	0.3961404317730553	-0.18377108288586913	0.7389627366901125	0.28856873056447757	-0.1991867568200966	0.9245080658060346	0.09750133600907598	0.7967549617874712	0.7012923207721059	0.08325204360982526	0.3203797782159519	0.7580983534957705	0.05466597332900439	-0.12299905458955918	0.8669867862704799	0.07031415150341815	-0.16082790973010233	0.6972102895746553	-0.0028065941267843607	-0.15371037258741022	0.7204235455000175	0.06425298114182823	-0.21654299775042532	0.9530566979099733	0.2233603182599262	1.4918932945385717	0.6810274003667436	0.23941046802244456	1.7508041775540535	0.5952817976810095	0.24179909604561373	1.595670957984784	0.5291371024028282	0.39405560832239084	1.3957384277221725	0.7391829971553783	0.43083606358096527	1.0703485546845908	0.7390473619691923	0.42741948453264894	0.794552478923598	0.6989052826119128	0.3725778374126406	0.6761405687657683	0.6381846532916882	0.3762744851835643	0.6540215524237201	0.6468302831877122	0.4193675541618172	0.6441392337253131	0.6959454631663358	0.06753001229373408	1.401306331318916	0.6935121357685187	-0.015232925945215617	1.0833265874577804	0.7053624932607718	0.027735578038775847	0.8299582848806775	0.6178820803208558	0.09018308741346147	0.7278004612483608	0.6022579229156229	0.0688839544363431	0.7122518392714536	0.5896552410037709	0.017129217812411866	0.6987403469640228	0.6388187269257886	
137	2.283333333333333	0.32138228269917374	0.7876381961510078	0.7380481482141901	0.33555713880759674	0.29711570247447794	0.7877950663401545	0.31612673918280826	-0.148648435948009	0.8931554026958739	0.34170639383748364	-0.15701351901976432	0.6791155356711367	0.3959035238406532	-0.1833416916219537	0.7391695522276758	0.2883121104495342	-0.19924692559907287	0.924299769421605	0.09711955840498789	0.796711157283429	0.7011417406925105	0.08338485485791453	0.320733946138206	0.7578981476514625	0.05472244194069081	-0.12284323543086804	0.8669890145489831	0.07029312047788584	-0.16051480464274612	0.6973013288102131	-0.0028411510699496165	-0.15381183995338588	0.7208667422684172	0.06404550030515939	-0.21658734514279018	0.9522859911265541	0.2228012278998896	1.490953450292305	0.6807440898505809	0.23915734764532787	1.749153946411287	0.5927870190053409	0.24090439529460872	1.5929229119718513	0.5265681394950825	0.3935374919401672	1.3956107985076989	0.7402849261197731	0.4297029688480635	1.0700821730925938	0.7397433865648468	0.4264227309465893	0.7958998983346932	0.6966982568254415	0.3723982970563574	0.6765663290747351	0.6359421621954314	0.37634490739409576	0.6542578463136737	0.6466542878181617	0.41806295443787306	0.6451144826916915	0.6929558569754347	0.06638057935263991	1.4011295114599693	0.6955910918601211	-0.01542948579048806	1.0825254071003056	0.7050762320887722	0.02889258719748388	0.8299947023674521	0.6154895863372468	0.08982021858338914	0.7278953023135972	0.5998482951199882	0.06855990596018421	0.7122789405620508	0.5894476374506001	0.017112655631373732	0.6995240536537473	0.636383972971224	
138	2.3	0.32129281385459607	0.7870825868915998	0.7384278169253263	0.33514856926104797	0.29675616092426227	0.7892110863925457	0.316057813219428	-0.14877373758658802	0.8929940211651869	0.3416901818564654	-0.15716166404873538	0.6792916178647869	0.3958054421010355	-0.18281982908103647	0.7395200935781739	0.28802471151970316	-0.19925625303977962	0.9238959688271517	0.0966180957165192	0.7966843118213993	0.7010012548281955	0.08350635706287989	0.3210184334555261	0.7577245082945399	0.05476184412123242	-0.12284270877802819	0.8670518181178293	0.07001701142882928	-0.1600826134297737	0.6975824230887416	-0.0029858694458912783	-0.15410803385211752	0.7215725739141838	0.06378587682263129	-0.21672735296116305	0.9514079917286103	0.22223252953654993	1.4904889075049799	0.6801733045634832	0.23887634347978726	1.7477941024395993	0.5905057317554946	0.24041983203998213	1.5912759952454552	0.5244357293442963	0.3930549287315227	1.3956171303066964	0.7404176721783986	0.4281536658386077	1.0696780253043068	0.7413474547978385	0.4251935787153365	0.797064642028077	0.695104987750563	0.3723659399960214	0.6768938462804003	0.6346044553006791	0.37641324703786855	0.6545876313374264	0.6464812522067943	0.41685154547647885	0.6461164473353218	0.689886193809675	0.06520073113969918	1.4008939592551817	0.6983302453190393	-0.01638713771177606	1.0817304348567094	0.7046572669390837	0.029784325252525657	0.8297811913303874	0.6134761070790569	0.08947247881487336	0.728161863664591	0.5972708784560824	0.06803296822027587	0.712311301401134	0.5891795385092296	0.01703348801751044	0.7003363817554357	0.6337552586013558	
139	2.316666666666667	0.32129407109085534	0.7865559245051983	0.738976217634223	0.3346567423524898	0.29647270081693355	0.7905633626518985	0.31600668496242257	-0.14896422745546295	0.8928784367659789	0.34165697582913956	-0.15730142255792767	0.6794697770945415	0.3958734036858416	-0.1825649988715452	0.739820380670416	0.2877416888277239	-0.1992453549530352	0.9233586529607901	0.09599957541953463	0.7966378006705869	0.7008847082213319	0.08356263388880743	0.3211909708398678	0.7576903451592881	0.054791204543505265	-0.1230022631096122	0.8671651549434914	0.06962360702808829	-0.15947944046346044	0.6979367010502622	-0.00311724812142643	-0.1543301615038337	0.7220014207826595	0.06347508439806829	-0.21691539350660416	0.950389556449741	0.22167426998537168	1.4903888599887662	0.6795369204838207	0.23860725574713157	1.7470708583207903	0.5887982716075646	0.24024781622415664	1.5905988280730792	0.5231160417840316	0.3925080864618875	1.3956665673709536	0.7398878655034153	0.4264183605377292	1.0692010334262612	0.7435982157408525	0.42389700975126066	0.7978457514799857	0.6943664391895448	0.37226443465300263	0.6772452883892357	0.6346495678908464	0.37645713030039796	0.6551001427132419	0.6462970667165712	0.4159408082189266	0.6470425804533734	0.6870837266177815	0.06410919865934148	1.4006497857114693	0.700958208559004	-0.01806411138052999	1.0810745243386326	0.7041532321826469	0.030350573994830606	0.8293687072051265	0.6120590263281427	0.08918371958479335	0.728571648451619	0.5948642278530191	0.0673950381920594	0.7123402003041913	0.5888922371609067	0.01688641700788617	0.701068940382922	0.6312374390695042	
140	2.333333333333333	0.32136163570061516	0.7860828159221127	0.739548847862926	0.3341118899706629	0.29623087525858105	0.7917555325243706	0.3159786309812246	-0.1492813659531106	0.8927811323425586	0.3416159193705718	-0.157421493250408	0.6796470853300938	0.39607081236472896	-0.1827241909171901	0.7400334432302995	0.2875120353792672	-0.19933075850508888	0.92288722681257	0.09528843734558128	0.7965624528570068	0.7007990036565616	0.08355320657589622	0.321278661030323	0.7577820920037401	0.05481721913198745	-0.12337063965141004	0.8673075273859696	0.06951599512683687	-0.15867246067699492	0.697776178564799	-0.003020024162720724	-0.1542919398567501	0.7217317620691774	0.06311632811333075	-0.21709878502610203	0.9491949623310001	0.22115985535859017	1.4904090790099151	0.6790805593569795	0.23841108235229289	1.747212063661157	0.587925603031258	0.24024693864528374	1.5906554822397532	0.522791401702295	0.39182817418326554	1.3957009667151938	0.7391889105175935	0.42477591507190005	1.0687116479463143	0.7460864189236701	0.4226639749076868	0.798209834280986	0.694458245811439	0.37177502560538933	0.6778217323862643	0.6361048790700046	0.37645900959994716	0.6559557896016807	0.6461154745478483	0.41535507715615144	0.6478993399295561	0.6845722556591858	0.06325346970005899	1.400438155566424	0.7029212661992446	-0.020217673961167186	1.080782162836495	0.7036131748065654	0.03062440916904052	0.8288345758308386	0.6113287817546651	0.0889758443865786	0.7290353976523489	0.5929808003897108	0.06674094143413262	0.7123581095758209	0.5886251358508724	0.01668738152711877	0.7016448038329545	0.6290912149317056	
141	2.35	0.3214658839182853	0.7856849970011132	0.7399433082462842	0.333536092196243	0.2960241054836337	0.7927639217312649	0.31596145128850367	-0.14965734726803542	0.8926530437221015	0.34157810124768234	-0.15750757156414394	0.6798153319914144	0.3962774807917706	-0.18330415045529658	0.7405473163024326	0.28737688200652073	-0.19962973586252408	0.9226777048798038	0.09452104073296	0.7964786272062594	0.7007376955987469	0.08347996046972973	0.321304534544299	0.7579928848193944	0.054838337898218355	-0.12401063097895891	0.86747091442205	0.07011814127803843	-0.15769179410831813	0.6963794565650799	-0.0025517267934407253	-0.153944670575989	0.7205752655893565	0.06273104972813527	-0.21732022968228606	0.9478805974968426	0.22064240509670646	1.490403506666914	0.679173920806257	0.23831832744983567	1.7481264614433525	0.5878819488750107	0.2402843689672018	1.5912514493454346	0.5230576195669898	0.39106535530395725	1.3956930685314288	0.7386670815607466	0.4234695392620756	1.0682566829713465	0.7484370155013421	0.4215294164235067	0.7983683124024153	0.6950275713954122	0.3707111763699031	0.6787707705088094	0.638512651737491	0.37640023676468887	0.6572402399670852	0.6459814114307465	0.41490709546555804	0.6487322388931409	0.6822109179299035	0.06278239101258355	1.4002908326373558	0.7039981756830704	-0.022539765841583462	1.0810071852588752	0.7030521275933121	0.030666728006541237	0.8282713590826138	0.6112675505464865	0.08884377792734138	0.729403346368702	0.5918993898266481	0.0661020052355433	0.7123655080335911	0.5883861394655018	0.016485011518319846	0.7020148302262571	0.6275723908966777	
142	2.3666666666666667	0.3215911134627413	0.7853813850468099	0.7399953721095294	0.33292106925862763	0.29585601738067674	0.7935864564048053	0.31594427748866605	-0.1499981505523454	0.8924853173086309	0.3415491701313761	-0.15755213039415933	0.6799624512597723	0.39632775399285486	-0.18418157908696994	0.7417772786213437	0.28734637549615005	-0.2001793453837538	0.9228050261674833	0.09373783747019858	0.7964115883233918	0.7006822860207237	0.08329886460528559	0.3212543833024616	0.7584272389546765	0.05484053105390706	-0.12494875539584875	0.8676676070753497	0.07159792430954638	-0.15662691647313368	0.6934501931012854	-0.001728413019465435	-0.15334988175045752	0.7186365839811867	0.06234470550139618	-0.21767965319704133	0.9466449279723173	0.2200204481714262	1.4904850702287322	0.6800644111605112	0.23824469674187673	1.749475813395653	0.5883268142157528	0.24030605410178935	1.592266736915773	0.5233165991135064	0.39038368434115917	1.39562583295384	0.7384556940100984	0.4226414353729232	1.067895143300176	0.7502974951055519	0.4205096363851494	0.7986739202293158	0.6956258405640118	0.3691573133499557	0.6800686318240244	0.6412870875185988	0.37627301641591315	0.6588825909871387	0.645930332695601	0.4143843768425322	0.64943591875497	0.6802842437389585	0.06272228276032375	1.400251283300184	0.7042555686713193	-0.02470812463601403	1.0817060720365923	0.7024584232921255	0.030471020289280434	0.8277803187127121	0.6117444456641481	0.08875874430747072	0.7295627767378792	0.5916471865473897	0.06545754999818053	0.712368726585678	0.5881575882071419	0.016369623862121367	0.7021526055919065	0.626954773543498	
